<?xml version="1.0" encoding="utf-8"?>
<!-- Generator: Adobe Illustrator 24.0.1, SVG Export Plug-In . SVG Version: 6.00 Build 0)  -->
<svg version="1.1" id="Layer_1" xmlns="http://www.w3.org/2000/svg" xmlns:xlink="http://www.w3.org/1999/xlink" x="0px" y="0px"
	 viewBox="0 0 240 60" style="enable-background:new 0 0 240 60;" xml:space="preserve">
<style type="text/css">
	.st0{enable-background:new    ;}
	.st1{fill:#1F2E32;}
	.st2{fill:#0A0A0A;}
	.st3{fill:#040404;}
	.st4{fill:#FDFDFD;}
	.st5{fill:#03056A;}
	.st6{fill:#E91111;}
	.st7{fill:#E91515;}
</style>
<g class="st0">
	<path class="st1" d="M67.4,26.7v-2.3c0-0.6,0.1-1,0.3-1.4s0.6-0.5,1-0.7l0-0.1l-1.5-0.5v-0.4c0-0.5,0.1-0.9,0.4-1.3
		c0.3-0.4,0.7-0.7,1.2-0.9s1.2-0.3,1.9-0.3c1.1,0,1.9,0.2,2.5,0.7s0.9,1.2,0.9,2.2v4.9h-2.1v-4.8c0-0.5-0.1-0.8-0.4-1
		c-0.2-0.2-0.6-0.3-1-0.3c-0.4,0-0.8,0.1-1,0.3c-0.2,0.2-0.3,0.4-0.3,0.7l1.2,0.6l-0.2,0.9c-0.3,0-0.6,0.1-0.8,0.4
		c-0.2,0.2-0.3,0.5-0.3,0.9v2.5H67.4z"/>
	<path class="st1" d="M78.2,26.7v-5.1c0-0.4-0.1-0.7-0.3-0.9c-0.2-0.2-0.5-0.3-0.9-0.3c-0.3,0-0.6,0-0.8,0.1
		c-0.3,0.1-0.5,0.2-0.7,0.3v-1.7c0.2-0.1,0.5-0.2,0.9-0.3c0.4-0.1,0.8-0.1,1.3-0.1c0.5,0,1,0.1,1.4,0.2c0.4,0.1,0.7,0.4,0.9,0.7
		c0.2,0.3,0.3,0.8,0.3,1.4v5.4H78.2z"/>
	<path class="st1" d="M84.9,26.8c-0.6,0-1.1-0.1-1.7-0.2c-0.6-0.1-1-0.3-1.5-0.5l0.6-1.7c0.3,0.1,0.6,0.3,1.1,0.5
		c0.4,0.2,0.9,0.2,1.4,0.2c0.8,0,1.1-0.2,1.1-0.7c0-0.2-0.1-0.4-0.4-0.6c-0.3-0.1-0.7-0.3-1.2-0.5c-0.5-0.2-0.9-0.4-1.3-0.6
		c-0.4-0.2-0.6-0.5-0.8-0.8C82,21.9,82,21.5,82,21.1c0-0.8,0.3-1.3,0.9-1.7c0.6-0.4,1.3-0.5,2.3-0.5c0.5,0,1,0,1.4,0.1
		s0.7,0.2,1,0.3v1.7c-0.2-0.1-0.6-0.2-1-0.3c-0.4-0.1-0.9-0.2-1.3-0.2c-0.8,0-1.2,0.2-1.2,0.6c0,0.2,0.2,0.4,0.5,0.5
		s0.7,0.3,1.3,0.5c0.7,0.3,1.3,0.6,1.7,0.9c0.4,0.4,0.6,0.9,0.6,1.5c0,0.4-0.1,0.8-0.3,1.2c-0.2,0.4-0.5,0.7-1,0.9
		C86.3,26.7,85.7,26.8,84.9,26.8z"/>
	<path class="st1" d="M89.6,26.7V19h1.5l0.3,1.2h0.1c0.2-0.4,0.4-0.7,0.8-1s0.9-0.4,1.5-0.4c1.8,0,2.7,1,2.7,2.9v4.9h-2.1v-4.5
		c0-0.5-0.1-0.9-0.3-1.1c-0.2-0.2-0.5-0.3-0.9-0.3c-0.5,0-0.9,0.2-1.1,0.6c-0.3,0.4-0.4,1-0.4,1.7v3.7H89.6z"/>
	<path class="st1" d="M100.6,26.7v-5.1c0-0.4-0.1-0.7-0.3-0.9c-0.2-0.2-0.5-0.3-0.9-0.3c-0.3,0-0.6,0-0.8,0.1
		c-0.3,0.1-0.5,0.2-0.7,0.3v-1.7c0.2-0.1,0.5-0.2,0.9-0.3c0.4-0.1,0.8-0.1,1.3-0.1c0.5,0,1,0.1,1.4,0.2c0.4,0.1,0.7,0.4,0.9,0.7
		c0.2,0.3,0.3,0.8,0.3,1.4v5.4H100.6z"/>
	<path class="st1" d="M105.9,26.7l-2.2-7.7h2.1l1.7,6h0.1c0.1,0,0.3,0,0.4-0.1s0.2-0.2,0.3-0.3c0.2-0.3,0.3-0.6,0.4-0.9
		c0.1-0.4,0.1-0.7,0.1-1.1c0-0.6-0.1-1.1-0.4-1.4c-0.2-0.3-0.6-0.5-1-0.5c-0.1,0-0.2,0-0.2,0c-0.1,0-0.1,0-0.2,0.1l-0.4-1.6
		c0.2-0.1,0.4-0.1,0.6-0.1c0.2,0,0.3,0,0.5,0c0.5,0,0.9,0.1,1.3,0.2c0.4,0.1,0.7,0.3,0.9,0.6c0.7,0.7,1,1.6,1,2.8
		c0,0.8-0.1,1.4-0.4,2c-0.2,0.6-0.5,1-0.9,1.3c-0.3,0.3-0.6,0.5-1.1,0.6c-0.4,0.2-1,0.2-1.7,0.2H105.9z"/>
	<path class="st1" d="M113.4,26.7l-1.3-7.7h2l0.4,2.7c0,0.2,0.1,0.5,0.1,0.9c0,0.4,0.1,0.8,0.1,1.4h0c0.1-0.5,0.2-1,0.3-1.4
		c0.1-0.4,0.2-0.7,0.3-1l0.8-2.7h1.3l0.8,2.7c0.1,0.3,0.1,0.6,0.2,1c0.1,0.4,0.2,0.8,0.3,1.4h0c0-0.5,0.1-1,0.1-1.4
		c0-0.4,0.1-0.7,0.1-0.9l0.4-2.7h2l-1.3,7.7H118l-0.9-3.1c-0.1-0.4-0.2-0.7-0.2-1c-0.1-0.3-0.1-0.6-0.1-0.9h-0.1
		c-0.1,0.3-0.1,0.6-0.2,0.9c-0.1,0.3-0.1,0.6-0.2,1l-0.9,3.1H113.4z"/>
	<path class="st1" d="M114.3,17.9V17l1.4-0.6h5v1.5H114.3z"/>
	<path class="st1" d="M124.9,26.8c-0.6,0-1.1-0.1-1.4-0.4S123,25.6,123,25v-6h2.1v5.8c0,0.3,0.2,0.5,0.5,0.5c0.1,0,0.3,0,0.5-0.1
		l0.2,1.3C125.9,26.7,125.5,26.8,124.9,26.8z"/>
	<path class="st1" d="M127.4,26.7v-4.5c0-1.1,0.3-1.9,0.9-2.5s1.5-0.8,2.7-0.8c0.4,0,0.7,0,1,0.1s0.6,0.2,0.8,0.4
		c0.3-0.2,0.5-0.5,0.5-0.8h1.8c0,0.4-0.1,0.7-0.3,1c-0.2,0.3-0.5,0.6-0.9,0.8c0.2,0.2,0.3,0.5,0.4,0.8c0.1,0.3,0.1,0.7,0.1,1v4.5
		h-2.1v-4.6c0-0.5-0.1-0.9-0.3-1.2c-0.2-0.3-0.6-0.4-1.1-0.4c-0.5,0-0.9,0.1-1.1,0.4c-0.2,0.3-0.3,0.7-0.3,1.2v1.2l0,0
		c0.2-0.4,0.4-0.6,0.6-0.7c0.2-0.1,0.6-0.2,1-0.2h0.3V24h-0.3c-0.5,0-0.8,0.1-1.1,0.2c-0.2,0.2-0.4,0.4-0.5,0.6
		c-0.1,0.3-0.1,0.5-0.1,0.9v1H127.4z"/>
	<path class="st1" d="M140.2,26.8c-1.3,0-2.2-0.3-2.8-0.9c-0.6-0.6-0.8-1.4-0.8-2.5V19h2.1v4.6c0,0.5,0.1,0.9,0.4,1.2
		c0.2,0.3,0.6,0.4,1.2,0.4c0.5,0,0.9-0.1,1.1-0.4c0.2-0.2,0.3-0.6,0.3-1.2v0h-0.6c-0.4,0-0.8-0.1-1-0.2c-0.3-0.1-0.4-0.3-0.5-0.6
		s-0.2-0.5-0.2-0.7c0-0.2,0-0.3,0.1-0.5s0.1-0.3,0.2-0.4l1.2,0.3c-0.1,0.1-0.1,0.2-0.1,0.4c0,0.1,0,0.2,0.1,0.3
		c0.1,0.1,0.2,0.1,0.3,0.1h0.5V19h2.1v3.3h0.8v1.4h-0.8c0,1-0.3,1.8-0.9,2.4C142.4,26.6,141.5,26.8,140.2,26.8z"/>
	<path class="st1" d="M148.3,26.8c-0.6,0-1.1-0.1-1.4-0.4s-0.5-0.7-0.5-1.4v-6h2.1v5.8c0,0.3,0.2,0.5,0.5,0.5c0.1,0,0.3,0,0.5-0.1
		l0.2,1.3C149.2,26.7,148.8,26.8,148.3,26.8z M152.5,26.8c-0.6,0-1.1-0.1-1.4-0.4c-0.3-0.3-0.5-0.7-0.5-1.4v-6h2.1v5.8
		c0,0.3,0.2,0.5,0.5,0.5c0.1,0,0.3,0,0.5-0.1l0.2,1.3C153.4,26.7,153,26.8,152.5,26.8z"/>
	<path class="st1" d="M155.2,26.7V19h2.1v2.9h0.1l2.4-2.9h2.3v0.1l-2,2.3c0.7,0.1,1.2,0.4,1.5,0.8s0.5,1,0.5,1.7v2.9h-2.1v-2.5
		c0-0.4-0.1-0.7-0.3-1c-0.2-0.2-0.5-0.4-0.9-0.4l-1.4,1.6v2.3H155.2z"/>
	<path class="st1" d="M159.7,17.9v-3.2h1.9v3.2H159.7z"/>
	<path class="st1" d="M165.1,26.7l-2.2-7.7h2.1l1.7,6h0.1c0.1,0,0.3,0,0.4-0.1s0.2-0.2,0.3-0.3c0.2-0.3,0.3-0.6,0.4-0.9
		s0.1-0.7,0.1-1.1c0-0.6-0.1-1.1-0.4-1.4s-0.6-0.5-1-0.5c-0.1,0-0.2,0-0.2,0c-0.1,0-0.1,0-0.2,0.1l-0.4-1.6c0.2-0.1,0.4-0.1,0.6-0.1
		c0.2,0,0.3,0,0.5,0c0.5,0,0.9,0.1,1.3,0.2c0.4,0.1,0.7,0.3,0.9,0.6c0.7,0.7,1,1.6,1,2.8c0,0.8-0.1,1.4-0.4,2s-0.5,1-0.9,1.3
		c-0.3,0.3-0.6,0.5-1.1,0.6c-0.4,0.2-1,0.2-1.7,0.2H165.1z"/>
	<path class="st1" d="M175.2,26.8c-1.2,0-2.1-0.3-2.6-0.8s-0.8-1.4-0.8-2.5V19h2.1v4.7c0,0.5,0.1,0.9,0.3,1.1s0.6,0.4,1,0.4
		s0.8-0.1,1-0.4c0.2-0.3,0.3-0.6,0.3-1.1v-7.4h2.1v7.3c0,1.1-0.3,1.9-0.8,2.5S176.5,26.8,175.2,26.8z"/>
	<path class="st1" d="M183.3,26.8c-0.6,0-1.1-0.1-1.7-0.2c-0.6-0.1-1-0.3-1.5-0.5l0.6-1.7c0.3,0.1,0.6,0.3,1.1,0.5s0.9,0.2,1.4,0.2
		c0.8,0,1.1-0.2,1.1-0.7c0-0.2-0.1-0.4-0.4-0.6c-0.3-0.1-0.7-0.3-1.2-0.5c-0.5-0.2-0.9-0.4-1.3-0.6c-0.4-0.2-0.6-0.5-0.8-0.8
		c-0.2-0.3-0.3-0.7-0.3-1.1c0-0.8,0.3-1.3,0.9-1.7c0.6-0.4,1.3-0.5,2.3-0.5c0.5,0,1,0,1.4,0.1s0.7,0.2,1,0.3v1.7
		c-0.2-0.1-0.6-0.2-1-0.3c-0.4-0.1-0.9-0.2-1.3-0.2c-0.8,0-1.2,0.2-1.2,0.6c0,0.2,0.2,0.4,0.5,0.5c0.3,0.1,0.7,0.3,1.3,0.5
		c0.7,0.3,1.3,0.6,1.7,0.9s0.6,0.9,0.6,1.5c0,0.4-0.1,0.8-0.3,1.2c-0.2,0.4-0.5,0.7-1,0.9C184.7,26.7,184.1,26.8,183.3,26.8z"/>
	<path class="st1" d="M189.2,22.1c-0.6,0-1.1-0.1-1.4-0.4c-0.3-0.3-0.4-0.6-0.4-1c0-0.3,0.1-0.7,0.3-1l1.5,0.2
		c0,0.1-0.1,0.3-0.1,0.4c0,0.1,0,0.2,0.1,0.3c0.1,0.1,0.2,0.1,0.4,0.1h1.6v1.4H189.2z M189.2,26.1c-0.6,0-1.1-0.1-1.4-0.4
		c-0.3-0.3-0.4-0.6-0.4-1c0-0.3,0.1-0.7,0.3-1l1.5,0.2c0,0.1-0.1,0.3-0.1,0.4c0,0.1,0,0.2,0.1,0.3c0.1,0.1,0.2,0.1,0.4,0.1h1.6v1.4
		H189.2z"/>
	<path class="st1" d="M195.1,26.8c-0.6,0-1.1-0.1-1.4-0.4s-0.5-0.7-0.5-1.4v-6h2.1v5.8c0,0.3,0.2,0.5,0.5,0.5c0.1,0,0.3,0,0.5-0.1
		l0.2,1.3C196.1,26.7,195.6,26.8,195.1,26.8z"/>
	<path class="st1" d="M197.8,26.7V19h1.5l0.3,1.2h0.1c0.2-0.4,0.4-0.7,0.8-1c0.4-0.3,0.9-0.4,1.5-0.4c1.8,0,2.7,1,2.7,2.9v4.9h-2.1
		v-4.5c0-0.5-0.1-0.9-0.3-1.1c-0.2-0.2-0.5-0.3-0.9-0.3c-0.5,0-0.9,0.2-1.1,0.6c-0.3,0.4-0.4,1-0.4,1.7v3.7H197.8z"/>
	<path class="st1" d="M206.7,26.7v-4.5c0-1.1,0.3-1.9,0.9-2.5s1.5-0.8,2.7-0.8c0.4,0,0.7,0,1,0.1s0.6,0.2,0.8,0.4
		c0.3-0.2,0.5-0.5,0.5-0.8h1.8c0,0.4-0.1,0.7-0.3,1c-0.2,0.3-0.5,0.6-0.9,0.8c0.2,0.2,0.3,0.5,0.4,0.8c0.1,0.3,0.1,0.7,0.1,1v4.5
		h-2.1v-4.6c0-0.5-0.1-0.9-0.3-1.2c-0.2-0.3-0.6-0.4-1.1-0.4c-0.5,0-0.9,0.1-1.1,0.4c-0.2,0.3-0.3,0.7-0.3,1.2v1.2l0,0
		c0.2-0.4,0.4-0.6,0.6-0.7c0.2-0.1,0.6-0.2,1-0.2h0.3V24h-0.3c-0.5,0-0.8,0.1-1.1,0.2c-0.2,0.2-0.4,0.4-0.5,0.6
		c-0.1,0.3-0.1,0.5-0.1,0.9v1H206.7z"/>
	<path class="st1" d="M218.4,26.8c-0.6,0-1.1-0.1-1.4-0.4s-0.5-0.7-0.5-1.4v-6.7c0-0.5,0.1-0.9,0.2-1.2c0.1-0.3,0.3-0.4,0.5-0.6
		l0-0.1H215l0.4-1.5h4.5v1.5c-0.3,0-0.6,0.1-0.9,0.3c-0.3,0.2-0.4,0.6-0.4,1.2v6.6c0,0.3,0.2,0.5,0.5,0.5c0.1,0,0.3,0,0.5-0.1
		l0.2,1.3C219.4,26.7,218.9,26.8,218.4,26.8z"/>
	<path class="st1" d="M220.9,26.7V19h1.5l0.3,1.2h0.1c0.2-0.4,0.4-0.7,0.8-1c0.4-0.3,0.9-0.4,1.5-0.4c1.8,0,2.7,1,2.7,2.9v4.9h-2.1
		v-4.5c0-0.5-0.1-0.9-0.3-1.1c-0.2-0.2-0.5-0.3-0.9-0.3c-0.5,0-0.9,0.2-1.1,0.6c-0.3,0.4-0.4,1-0.4,1.7v3.7H220.9z"/>
	<path class="st1" d="M233.1,26.8c-0.8,0-1.5-0.1-2-0.3c-0.5-0.2-0.9-0.5-1.1-0.8s-0.3-0.8-0.3-1.3c0-0.4,0.1-0.7,0.2-1
		s0.3-0.5,0.5-0.6c0.2-0.1,0.4-0.2,0.6-0.3v-0.1c-0.3-0.1-0.6-0.3-0.9-0.5c-0.3-0.3-0.4-0.6-0.4-1.1c0-0.3,0.1-0.7,0.2-1
		c0.2-0.3,0.4-0.5,0.8-0.7c0.4-0.2,0.8-0.3,1.4-0.3c0.3,0,0.6,0,0.8,0.1c0.3,0,0.5,0.1,0.6,0.2l-0.3,1.4c-0.1,0-0.2,0-0.3-0.1
		s-0.3,0-0.4,0c-0.3,0-0.5,0.1-0.6,0.2c-0.1,0.1-0.2,0.3-0.2,0.5c0,0.3,0.1,0.6,0.4,0.7c0.3,0.1,0.5,0.2,0.9,0.2h0.3v1.3H233
		c-0.4,0-0.7,0.1-0.9,0.2c-0.2,0.1-0.3,0.4-0.3,0.7c0,0.2,0,0.3,0.1,0.5c0.1,0.2,0.2,0.3,0.4,0.4c0.2,0.1,0.5,0.2,0.8,0.2
		c0.5,0,0.9-0.1,1.1-0.3c0.2-0.2,0.3-0.5,0.3-0.8V19h2.1v5c0,1-0.3,1.7-0.8,2.1C235.2,26.6,234.3,26.8,233.1,26.8z"/>
</g>
<g class="st0">
	<path class="st1" d="M67.3,41.7v-6.5h3.6v0.7h-2.7v2.1h2.3v0.7h-2.3V41h2.9v0.7H67.3z"/>
	<path class="st1" d="M71.4,41.7l2.2-3.3l-2.1-3.2h1.1l1.6,2.5l1.6-2.5h0.9l-2.1,3.1l2.1,3.4h-1.1L74,39.1l-1.7,2.6H71.4z"/>
	<path class="st1" d="M77.8,41.7v-6.5h1.8c0.8,0,1.3,0.1,1.7,0.4c0.3,0.3,0.5,0.7,0.5,1.3c0,0.7-0.2,1.2-0.7,1.6s-1.1,0.6-2,0.6
		h-0.4v2.6H77.8z M78.7,38.4h0.4c0.5,0,1-0.1,1.3-0.4s0.4-0.6,0.4-1.1c0-0.4-0.1-0.7-0.4-0.8s-0.6-0.3-1.2-0.3h-0.6V38.4z"/>
	<path class="st1" d="M82.8,41.7v-6.5h2c0.6,0,1.1,0.1,1.4,0.4c0.3,0.3,0.5,0.7,0.5,1.2c0,0.9-0.4,1.5-1.3,1.8l2.2,3h-1.1l-1.9-2.8
		h-0.9v2.8H82.8z M83.7,38.2H84c1.2,0,1.7-0.5,1.7-1.4c0-0.7-0.5-1-1.5-1h-0.6V38.2z"/>
	<path class="st1" d="M88.5,41.7v-6.5h3.6v0.7h-2.7v2.1h2.3v0.7h-2.3V41h2.9v0.7H88.5z"/>
	<path class="st1" d="M94.6,41.8c-0.4,0-1-0.1-1.7-0.3v-0.9c0.7,0.3,1.3,0.5,1.8,0.5c0.4,0,0.7-0.1,0.9-0.3s0.3-0.4,0.3-0.8
		c0-0.3-0.1-0.5-0.2-0.7c-0.1-0.2-0.4-0.4-0.8-0.6l-0.4-0.3c-0.6-0.3-0.9-0.6-1.2-0.9c-0.2-0.3-0.3-0.6-0.3-1c0-0.5,0.2-0.9,0.5-1.2
		c0.4-0.3,0.8-0.5,1.4-0.5c0.5,0,1,0.1,1.6,0.2v0.8c-0.7-0.3-1.2-0.4-1.5-0.4c-0.3,0-0.6,0.1-0.8,0.3s-0.3,0.4-0.3,0.6
		c0,0.2,0.1,0.4,0.2,0.6c0.2,0.2,0.4,0.4,0.8,0.6l0.5,0.3c0.6,0.3,1,0.6,1.2,0.9c0.2,0.3,0.3,0.6,0.3,1c0,0.6-0.2,1-0.6,1.4
		C95.9,41.7,95.3,41.8,94.6,41.8z"/>
	<path class="st1" d="M99.5,41.8c-0.4,0-1-0.1-1.7-0.3v-0.9c0.7,0.3,1.3,0.5,1.8,0.5c0.4,0,0.7-0.1,0.9-0.3s0.3-0.4,0.3-0.8
		c0-0.3-0.1-0.5-0.2-0.7c-0.1-0.2-0.4-0.4-0.8-0.6l-0.4-0.3c-0.6-0.3-0.9-0.6-1.2-0.9c-0.2-0.3-0.3-0.6-0.3-1c0-0.5,0.2-0.9,0.5-1.2
		c0.4-0.3,0.8-0.5,1.4-0.5c0.5,0,1,0.1,1.6,0.2v0.8c-0.7-0.3-1.2-0.4-1.5-0.4c-0.3,0-0.6,0.1-0.8,0.3s-0.3,0.4-0.3,0.6
		c0,0.2,0.1,0.4,0.2,0.6c0.2,0.2,0.4,0.4,0.8,0.6l0.5,0.3c0.6,0.3,1,0.6,1.2,0.9c0.2,0.3,0.3,0.6,0.3,1c0,0.6-0.2,1-0.6,1.4
		C100.7,41.7,100.2,41.8,99.5,41.8z"/>
	<path class="st1" d="M103.9,41.7l-1.7-6.5h0.9l1.3,5.1l1.2-5.1h0.9l1.2,5.1l1.4-5.1h0.8l-1.8,6.5h-0.9l-1.1-5l-1.2,5H103.9z"/>
	<path class="st1" d="M115,41.7l-0.7-1.8h-2.8l-0.7,1.8H110l2.6-6.5h0.9l2.5,6.5H115z M114,39.2l-1.1-2.8l-1.1,2.8H114z"/>
	<path class="st1" d="M118.4,41.7v-2.7l-2.2-3.8h1.1l1.7,2.9l1.8-2.9h0.9l-2.3,3.8v2.7H118.4z"/>
</g>
<g class="st0">
	<path class="st1" d="M129.2,41.7l-0.7-1.8h-2.8l-0.7,1.8h-0.9l2.6-6.5h0.9l2.5,6.5H129.2z M128.2,39.2l-1.1-2.8l-1.1,2.8H128.2z"/>
	<path class="st1" d="M131.1,35.2h0.9v4.1c0,0.7,0.1,1.1,0.4,1.4c0.2,0.3,0.6,0.4,1.2,0.4c0.5,0,0.9-0.1,1.1-0.4
		c0.2-0.3,0.3-0.8,0.3-1.4v-4.1h0.8v4.1c0,0.9-0.2,1.5-0.5,1.9c-0.4,0.4-0.9,0.6-1.7,0.6c-0.8,0-1.4-0.2-1.8-0.6s-0.6-1.1-0.6-1.9
		V35.2z"/>
	<path class="st1" d="M138.9,41.7v-5.8h-2.3v-0.7h5.5v0.7h-2.3v5.8H138.9z"/>
	<path class="st1" d="M143,41.7v-6.5h0.9v2.7h3.1v-2.7h0.9v6.5h-0.9v-3.1H144v3.1H143z"/>
	<path class="st1" d="M152.3,41.8c-0.9,0-1.6-0.3-2.2-0.9c-0.5-0.6-0.8-1.5-0.8-2.5c0-1,0.3-1.9,0.8-2.5c0.6-0.6,1.3-0.9,2.2-0.9
		c0.9,0,1.7,0.3,2.2,0.9s0.8,1.4,0.8,2.5c0,1.1-0.3,1.9-0.8,2.5C154,41.5,153.2,41.8,152.3,41.8z M152.3,41.1c0.7,0,1.2-0.2,1.5-0.7
		c0.4-0.5,0.5-1.2,0.5-2c0-0.8-0.2-1.5-0.5-2c-0.4-0.5-0.9-0.7-1.5-0.7c-0.6,0-1.2,0.2-1.5,0.7c-0.4,0.5-0.5,1.1-0.5,2
		c0,0.8,0.2,1.5,0.5,2S151.6,41.1,152.3,41.1z"/>
	<path class="st1" d="M156.6,41.7v-6.5h2c0.6,0,1.1,0.1,1.4,0.4c0.3,0.3,0.5,0.7,0.5,1.2c0,0.9-0.4,1.5-1.3,1.8l2.2,3h-1.1l-1.9-2.8
		h-0.9v2.8H156.6z M157.6,38.2h0.3c1.2,0,1.7-0.5,1.7-1.4c0-0.7-0.5-1-1.5-1h-0.6V38.2z"/>
	<path class="st1" d="M162.3,41.7v-6.5h0.9v6.5H162.3z"/>
	<path class="st1" d="M166.5,41.7v-5.8h-2.3v-0.7h5.5v0.7h-2.3v5.8H166.5z"/>
	<path class="st1" d="M172,41.7v-2.7l-2.2-3.8h1.1l1.7,2.9l1.8-2.9h0.9l-2.3,3.8v2.7H172z"/>
</g>
<g class="st0">
	<path class="st1" d="M181.2,41.8c-0.9,0-1.6-0.3-2.2-0.9c-0.5-0.6-0.8-1.5-0.8-2.5c0-1,0.3-1.9,0.8-2.5c0.6-0.6,1.3-0.9,2.2-0.9
		c0.9,0,1.7,0.3,2.2,0.9s0.8,1.4,0.8,2.5c0,1.1-0.3,1.9-0.8,2.5C182.9,41.5,182.1,41.8,181.2,41.8z M181.2,41.1
		c0.7,0,1.2-0.2,1.5-0.7c0.4-0.5,0.5-1.2,0.5-2c0-0.8-0.2-1.5-0.5-2c-0.4-0.5-0.9-0.7-1.5-0.7c-0.6,0-1.2,0.2-1.5,0.7
		c-0.4,0.5-0.5,1.1-0.5,2c0,0.8,0.2,1.5,0.5,2S180.6,41.1,181.2,41.1z"/>
	<path class="st1" d="M185.6,41.7v-6.5h3.6v0.7h-2.7V38h2.3v0.7h-2.3v3H185.6z"/>
</g>
<g class="st0">
	<path class="st1" d="M194.3,41.7v-5.8H192v-0.7h5.5v0.7h-2.3v5.8H194.3z"/>
	<path class="st1" d="M198.4,41.7v-6.5h0.9v2.7h3.1v-2.7h0.9v6.5h-0.9v-3.1h-3.1v3.1H198.4z"/>
	<path class="st1" d="M209.3,41.7l-0.7-1.8h-2.8l-0.7,1.8h-0.9l2.6-6.5h0.9l2.5,6.5H209.3z M208.3,39.2l-1.1-2.8l-1.1,2.8H208.3z"/>
	<path class="st1" d="M211.2,41.7v-6.5h0.9v6.5H211.2z"/>
	<path class="st1" d="M213.8,41.7v-6.5h0.9V41h2.9v0.7H213.8z"/>
	<path class="st1" d="M222.9,41.7l-0.7-1.8h-2.8l-0.7,1.8h-0.9l2.6-6.5h0.9l2.5,6.5H222.9z M221.9,39.2l-1.1-2.8l-1.1,2.8H221.9z"/>
	<path class="st1" d="M224.8,41.7v-6.5h0.9l3.3,5v-5h0.8v6.5h-0.9l-3.3-5v5H224.8z"/>
	<path class="st1" d="M231.5,41.7v-6.5h2.2c0.6,0,1.2,0.1,1.6,0.2c0.4,0.1,0.7,0.4,1,0.7c0.5,0.5,0.7,1.3,0.7,2.2
		c0,1.1-0.3,1.9-0.9,2.5c-0.6,0.6-1.4,0.9-2.4,0.9H231.5z M232.4,41h1.2c0.8,0,1.4-0.2,1.8-0.7c0.4-0.5,0.6-1.1,0.6-1.9
		c0-0.8-0.2-1.4-0.6-1.8c-0.2-0.3-0.5-0.4-0.8-0.5c-0.3-0.1-0.8-0.1-1.4-0.1h-0.8V41z"/>
</g>
<g>
	<path class="st2" d="M37.5,55.5c0-0.1,0-0.2,0.2-0.2c0.1,0,0.2,0,0.2-0.1c0-0.6,0-1.2,0-1.7c-0.1,0-0.1,0-0.2,0
		c-0.2,0-0.4-0.1-0.5-0.3c-0.1-0.3,0-0.5,0.2-0.6c0.4-0.2,0.8,0,0.8,0.5c0,0.7,0,1.3,0,2c0,0.1,0,0.2,0.2,0.2c0.2,0,0.4,0,0.6,0
		c0.3,0,0.4-0.1,0.4-0.4c0-1.2,0-2.4,0-3.5c0-0.2,0.1-0.3,0.2-0.5c0,0,0.1-0.1,0.1,0c0.1,0,0,0.1,0,0.1c0,1.3,0,2.7,0,4
		c0,0.2-0.1,0.4-0.2,0.5C38.8,55.5,38.1,55.5,37.5,55.5z M37.3,53c0,0.2,0.1,0.3,0.2,0.3c0.2,0,0.2-0.1,0.2-0.3
		c0-0.1-0.1-0.2-0.2-0.2C37.4,52.8,37.3,52.9,37.3,53z"/>
	<path class="st2" d="M19.1,55.5c0-0.7,0-1.3,0-2c0-0.1,0-0.1-0.1-0.1c-0.3,0-0.5-0.1-0.5-0.4c0-0.3,0.2-0.4,0.5-0.4
		c0.3,0,0.5,0.2,0.5,0.5c0,0.5,0,0.9,0,1.4c0.1-0.1,0.1-0.3,0.1-0.4c0.1-0.5,0.3-1,0.4-1.4c0-0.1,0-0.2,0.1-0.2
		c0.1,0,0.1,0.1,0.1,0.2c0.1,0.5,0.3,1,0.4,1.5c0,0.1,0,0.1,0.1,0.2c0.1-0.1,0.1-0.1,0.1-0.2c0-0.5,0-1,0-1.5c0-0.2,0.1-0.2,0.2-0.2
		c0.1,0,0.2,0,0.2,0.2c0,0.9,0,1.8,0,2.7c-0.1,0-0.3,0-0.4,0c0-0.1,0-0.1,0-0.2c-0.1-0.5-0.2-1-0.4-1.5c-0.1-0.3-0.1-0.5-0.2-0.8
		c-0.1,0.3-0.2,0.6-0.2,0.8c-0.1,0.5-0.3,1.1-0.4,1.6C19.3,55.5,19.2,55.5,19.1,55.5z M19.1,53c0-0.2-0.1-0.3-0.2-0.3
		c-0.1,0-0.2,0.1-0.3,0.2c0,0.2,0.1,0.3,0.2,0.3C19,53.2,19.1,53.1,19.1,53z"/>
	<path class="st2" d="M23.2,55.5c0-0.5,0.1-1-0.2-1.5c-0.3-0.6,0.1-1.3,0.8-1.4c0.4,0,0.7,0.1,1,0.4c0.2-0.2,0.2-0.3,0.2-0.5
		c0-0.2,0.1-0.1,0.2-0.1c0.1,0,0.1,0,0.1,0.1c0,0.2-0.1,0.5-0.2,0.7c-0.1,0.1-0.1,0.2-0.1,0.3c0,0.6,0,1.2,0,1.8c0,0.1,0,0.1,0,0.2
		c-0.1,0-0.3,0-0.4,0c0-0.6,0-1.3,0-1.9c-0.3,0.1-0.3,0.1-0.5,0.4C24.2,54,24.1,54,23.9,54c-0.1,0-0.2,0-0.3,0c0,0.5,0,1,0,1.4
		C23.5,55.5,23.4,55.5,23.2,55.5z M23.3,53.8c0-0.1,0-0.2,0.1-0.2c0.1-0.3,0.5-0.5,0.7-0.2c0.2,0.2,0.3,0.1,0.5,0
		c0.1-0.1,0.1-0.1,0-0.2c-0.3-0.3-1-0.3-1.3,0C23.1,53.3,23.1,53.6,23.3,53.8z M24.1,53.6c0-0.1-0.1-0.2-0.2-0.2
		c-0.2,0-0.2,0.1-0.2,0.2c0,0.1,0.1,0.2,0.2,0.2C24,53.9,24.1,53.8,24.1,53.6z"/>
	<path class="st2" d="M50,55.5c0-0.5,0.1-1-0.2-1.5c-0.3-0.6,0.1-1.3,0.8-1.4c0.4,0,0.7,0.1,1,0.4c0.2-0.2,0.2-0.3,0.2-0.5
		c0-0.2,0.1-0.1,0.2-0.1c0.1,0,0.1,0,0.1,0.1c0,0.2-0.1,0.5-0.2,0.7c-0.1,0.1-0.1,0.2-0.1,0.3c0,0.6,0,1.2,0,1.8c0,0.1,0,0.1,0,0.2
		c-0.1,0-0.3,0-0.4,0c0-0.6,0-1.3,0-2c-0.2,0.1-0.4,0.1-0.5,0.4c0,0.1-0.2,0.1-0.3,0.2c-0.1,0-0.2,0-0.3,0c0,0.5,0,1,0,1.4
		C50.3,55.5,50.1,55.5,50,55.5z M50.1,53.8c0-0.2,0.1-0.3,0.2-0.4c0.2-0.2,0.5-0.3,0.6-0.1c0.2,0.2,0.3,0.1,0.5,0
		c0.1-0.1,0.1-0.1,0-0.2c-0.2-0.3-0.8-0.3-1.1-0.1C49.9,53.2,49.9,53.5,50.1,53.8z M50.7,53.9c0.1,0,0.2-0.1,0.2-0.2
		c0-0.1-0.1-0.2-0.2-0.2c-0.1,0-0.2,0.1-0.2,0.2C50.4,53.8,50.5,53.9,50.7,53.9z"/>
	<path class="st3" d="M55.6,55.5c0-0.7,0-1.4,0-2.1c-0.4,0.1-0.6-0.1-0.6-0.3c0-0.2,0.1-0.5,0.4-0.5c0.3,0,0.6,0.1,0.6,0.4
		c0,0.4,0,0.8,0,1.2c0,0.1,0,0.2,0,0.3c0.1-0.1,0.1-0.3,0.2-0.4c0.1-0.4,0.2-0.8,0.3-1.1c0.1-0.3,0.3-0.4,0.6-0.4
		c0.3,0,0.5,0.2,0.5,0.5c0,0.1,0,0.2,0,0.3c0,0.6,0,1.3,0,1.9c0,0.1,0,0.1,0,0.2c-0.2,0-0.3,0-0.5,0c0-0.8,0-1.5,0-2.3
		c0-0.1,0-0.3-0.2-0.3c-0.2,0-0.3,0.1-0.3,0.2c-0.1,0.5-0.2,0.9-0.3,1.4c-0.1,0.3-0.2,0.6-0.2,1C55.9,55.5,55.7,55.5,55.6,55.5z
		 M55.4,53.2c0.1,0,0.2-0.1,0.2-0.3c0-0.2-0.1-0.3-0.2-0.2c-0.2,0-0.3,0.1-0.3,0.2C55.1,53.1,55.2,53.2,55.4,53.2z"/>
	<path class="st3" d="M47.1,55.5c0-0.7,0-1.4,0-2.1c-0.4,0.1-0.6-0.1-0.6-0.3c0-0.2,0.1-0.5,0.4-0.5c0.3,0,0.6,0.1,0.6,0.4
		c0,0.4,0,0.8,0,1.2c0,0.1,0,0.2,0,0.3c0.1-0.1,0.1-0.3,0.2-0.4c0.1-0.4,0.2-0.8,0.3-1.1c0.1-0.3,0.3-0.4,0.6-0.4
		c0.3,0,0.5,0.2,0.5,0.5c0,0.1,0,0.2,0,0.3c0,0.6,0,1.3,0,1.9c0,0.1,0,0.1,0,0.2c-0.2,0-0.3,0-0.5,0c0-0.8,0-1.5,0-2.3
		c0-0.1,0-0.3-0.2-0.3c-0.2,0-0.3,0.1-0.3,0.2c-0.1,0.5-0.2,0.9-0.3,1.4c-0.1,0.3-0.2,0.6-0.2,1C47.4,55.5,47.3,55.5,47.1,55.5z
		 M46.9,52.7c-0.2,0-0.3,0.1-0.3,0.3c0,0.2,0.1,0.3,0.3,0.3c0.2,0,0.3-0.1,0.3-0.3C47.2,52.8,47.1,52.7,46.9,52.7z"/>
	<path class="st3" d="M11.6,55.5c0-0.7,0-1.4,0-2.1c-0.4,0.1-0.6-0.1-0.6-0.3c0-0.2,0.1-0.5,0.4-0.5c0.3,0,0.6,0.1,0.6,0.4
		c0,0.4,0,0.8,0,1.2c0,0.1,0,0.2,0,0.2c0.1-0.1,0.1-0.2,0.1-0.4c0.1-0.4,0.2-0.8,0.3-1.1c0.1-0.3,0.3-0.4,0.6-0.4
		c0.3,0,0.5,0.2,0.5,0.5c0,0.1,0,0.2,0,0.3c0,0.6,0,1.3,0,1.9c0,0.1,0,0.1,0,0.2c-0.2,0-0.3,0-0.5,0c0-0.8,0-1.5,0-2.3
		c0-0.1,0-0.3-0.2-0.3c-0.2,0-0.3,0.1-0.3,0.2c-0.1,0.5-0.2,0.9-0.3,1.4c-0.1,0.3-0.2,0.6-0.2,1C11.9,55.5,11.8,55.5,11.6,55.5z
		 M11.4,53.2c0.1,0,0.2-0.1,0.2-0.3c0-0.2-0.1-0.3-0.2-0.3c-0.2,0-0.3,0.1-0.3,0.2C11.2,53.1,11.2,53.2,11.4,53.2z"/>
	<path class="st4" d="M5.5,55.5c-0.4,0-0.8,0-1.2,0c0-0.5,0-1.1,0-1.6c0-0.3,0-0.3,0.3-0.3c0.1,0,0.1,0,0.1-0.1
		c0-0.1-0.1-0.1-0.1-0.1c-0.2,0-0.4,0-0.7,0c0.2-0.4,0.5-0.6,1-0.5c0.4,0.1,0.6,0.3,0.6,0.8C5.5,54.2,5.5,54.8,5.5,55.5z"/>
	<path class="st3" d="M26,55.5c0-0.1,0-0.2,0.2-0.2c0.1,0,0.2,0,0.2-0.1c0-0.6,0-1.2,0-1.8c-0.1,0-0.1,0-0.1,0
		c-0.2,0-0.4-0.1-0.4-0.3c0-0.3,0.1-0.5,0.3-0.5c0.4-0.1,0.7,0.2,0.7,0.5c0,0.2,0,0.4,0,0.7c0.2-0.1,0.3-0.2,0.5-0.1
		c0.1,0.1,0.1,0.2,0.1,0.3c0,0.1-0.1,0.1-0.2,0.1c0-0.1,0-0.2-0.1-0.3c-0.1,0-0.2,0-0.2,0.1c0,0.1,0,0.2,0.1,0.3
		c0.2,0.2,0.4,0.2,0.7,0.1c0.2-0.1,0.2-0.3,0.2-0.5c0-0.3,0-0.6,0-0.8c0-0.2,0.1-0.3,0.3-0.5c0.1-0.1,0.1-0.1,0.1,0.1
		c0,0.8,0,1.6,0,2.4c0,0.2-0.2,0.3-0.4,0.4C27.2,55.5,26.6,55.5,26,55.5z M26.7,54.4c0,0.3,0,0.5,0,0.8c0,0.1,0,0.1,0.1,0.1
		c0.2,0,0.5,0,0.7,0c0.2,0,0.3-0.1,0.3-0.3c0-0.2,0-0.4,0-0.6C27.4,54.7,27.1,54.7,26.7,54.4z M26.1,52.7c-0.2,0-0.2,0.1-0.2,0.2
		c0,0.2,0.1,0.3,0.2,0.3c0.1,0,0.2-0.1,0.2-0.2C26.4,52.8,26.3,52.7,26.1,52.7z"/>
	<path class="st2" d="M32.1,55.5c0-0.6,0-1.3,0-1.9c0-0.1,0-0.1-0.1-0.1c-0.3,0-0.5-0.1-0.5-0.4c0-0.3,0.2-0.5,0.5-0.5
		c0.3,0,0.5,0.2,0.5,0.5c0,0.4,0,0.7,0,1.2c0.2-0.2,0.3-0.3,0.4-0.5c0.1-0.1,0.2-0.2,0.3-0.3c0.1-0.1,0.3-0.2,0.2-0.4
		c-0.1-0.2,0-0.3,0.2-0.4c0.2-0.1,0.4,0,0.5,0.1c0.1,0.1,0.1,0.4,0,0.5C34,53.3,34,53.5,34,53.6c0,0.5,0,1.1,0,1.6
		c0,0.1,0,0.1,0,0.2c-0.1,0-0.3,0-0.4,0c0-0.7,0-1.4,0-2.1c-0.4,0.3-0.8,0.6-1,1c-0.2,0.3-0.1,0.7-0.1,1.1
		C32.4,55.5,32.3,55.5,32.1,55.5z M34.1,52.9c0-0.1-0.1-0.2-0.2-0.2c-0.1,0-0.2,0.1-0.2,0.2c0,0.2,0.1,0.2,0.2,0.2
		C34,53.2,34.1,53.1,34.1,52.9z M32.2,53c0-0.1-0.1-0.2-0.2-0.2c-0.1,0-0.2,0.1-0.2,0.2c0,0.2,0.1,0.2,0.2,0.2
		C32.1,53.2,32.2,53.1,32.2,53z"/>
	<path class="st3" d="M53.9,55.5c-0.3-0.2-0.3-0.3-0.2-0.7c0-0.1,0-0.1,0-0.2c0-1.1,0-2.3,0-3.4c0,0,0,0,0-0.1c0-0.1,0-0.2-0.1-0.2
		c-0.1,0-0.2,0.1-0.2,0.2c0,0.2,0,0.4,0,0.6c0,0.3-0.1,0.4-0.3,0.5c-0.2,0-0.4-0.2-0.4-0.5c0-0.2,0-0.5,0-0.7c0-0.2,0-0.3-0.2-0.4
		c0,0-0.1,0,0-0.1c0,0,0.1,0,0.1,0c0.2,0,0.4,0.1,0.4,0.4c0,0.3,0,0.6,0,0.9c0,0.1,0,0.2,0.1,0.2c0.1,0,0.1-0.1,0.1-0.2
		c0-0.2,0-0.4,0-0.6c0-0.3,0.4-0.5,0.7-0.4c0.2,0.1,0.2,0.2,0.2,0.4c0,1.1,0,2.2,0,3.4c0,0.1,0,0.2,0.1,0.2c0.3,0.1,0.3,0.5,0.1,0.7
		c0,0-0.1,0-0.1,0.1C54.1,55.5,54,55.5,53.9,55.5z M54.3,55.1c0-0.2-0.1-0.3-0.3-0.3c-0.2,0-0.3,0.1-0.3,0.2c0,0.2,0.1,0.3,0.3,0.3
		C54.2,55.3,54.3,55.2,54.3,55.1z"/>
	<path class="st2" d="M58.9,55.5c0-0.1-0.1-0.1-0.2-0.1c-0.4-0.1-0.5-0.4-0.5-0.8c0-0.3,0-0.6,0.2-0.8c0.1-0.1,0-0.1,0-0.1
		c-0.2-0.4-0.2-0.8,0.1-1c0.2-0.1,0.4-0.2,0.6-0.1c0.2,0.1,0.2,0.3,0.2,0.5c-0.1,0.3-0.4,0.4-0.7,0.2c0,0.2,0.1,0.4,0.4,0.4
		c0.1,0,0.3-0.1,0.3,0.1c0,0.2-0.2,0.1-0.3,0.1c-0.2,0-0.3,0.2-0.3,0.4c0,0.2,0,0.4,0,0.6c0,0.3,0.3,0.5,0.6,0.5
		c0.3,0,0.5-0.2,0.5-0.5c0-0.6,0-1.1,0-1.7c0-0.2,0.1-0.3,0.2-0.4c0,0,0.1,0,0.1,0c0.1,0,0.1,0.1,0.1,0.1c0,0.7,0,1.4,0,2.1
		c0,0.2-0.1,0.3-0.2,0.4c-0.1,0.1-0.3,0.2-0.4,0.3C59.3,55.5,59.1,55.5,58.9,55.5z M58.9,53.2c0.1,0,0.2-0.1,0.2-0.2
		c0-0.1-0.1-0.2-0.2-0.2c-0.1,0-0.2,0.1-0.2,0.2C58.6,53.1,58.7,53.2,58.9,53.2z"/>
	<path class="st3" d="M5.5,55.5c0-0.6,0-1.3,0-1.9c0-0.4-0.2-0.7-0.6-0.8c-0.5-0.1-0.8,0.1-1,0.5c0.2,0,0.5,0,0.7,0
		c0.1,0,0.1,0,0.1,0.1c0,0.1-0.1,0.1-0.1,0.1c-0.3,0-0.3,0-0.3,0.3c0,0.5,0,1.1,0,1.6c-0.1,0-0.3,0-0.4,0c0-0.6,0-1.2,0-1.8
		c0-0.1,0-0.2-0.1-0.2c-0.1,0-0.1,0-0.1-0.1C3.8,53,4,52.8,4.3,52.7c0.3-0.1,0.7-0.1,1,0c0.4,0.1,0.6,0.4,0.6,0.8c0,0.4,0,0.8,0,1.1
		c0,0.3,0,0.6-0.3,0.8C5.6,55.5,5.6,55.5,5.5,55.5z"/>
	<path class="st4" d="M12,55.5c0-0.3,0.1-0.6,0.2-1c0.1-0.5,0.2-0.9,0.3-1.4c0-0.2,0.1-0.3,0.3-0.2c0.2,0,0.2,0.2,0.2,0.3
		c0,0.8,0,1.5,0,2.3C12.8,55.5,12.4,55.5,12,55.5z"/>
	<path class="st4" d="M56,55.5c0-0.3,0.1-0.6,0.2-1c0.1-0.5,0.2-0.9,0.3-1.4c0-0.2,0.1-0.3,0.3-0.2c0.2,0,0.2,0.2,0.2,0.3
		c0,0.8,0,1.5,0,2.3C56.7,55.5,56.4,55.5,56,55.5z"/>
	<path class="st4" d="M47.6,55.5c0-0.3,0.1-0.6,0.2-1c0.1-0.5,0.2-0.9,0.3-1.4c0-0.2,0.1-0.3,0.3-0.2c0.2,0,0.2,0.2,0.2,0.3
		c0,0.8,0,1.5,0,2.3C48.3,55.5,47.9,55.5,47.6,55.5z"/>
	<path class="st3" d="M36.1,55.5C35.8,55,35.4,54.5,35,54c-0.1-0.1-0.1-0.2-0.1-0.3c0.4,0.3,0.8,0.7,1.1,1c0.1,0,0-0.1,0-0.1
		c0-0.4,0-0.8,0-1.1c0-0.1,0-0.1-0.1-0.1c-0.3,0-0.4-0.1-0.5-0.3c0-0.3,0.1-0.5,0.3-0.5c0.2-0.1,0.5,0,0.6,0.2
		c0.1,0.1,0.1,0.3,0.1,0.4c0,0.7,0,1.5,0,2.2C36.4,55.5,36.2,55.5,36.1,55.5z M36,53.3c0.2,0,0.2-0.1,0.2-0.3c0-0.2-0.1-0.2-0.2-0.2
		c-0.2,0-0.2,0.1-0.2,0.3C35.7,53.2,35.8,53.3,36,53.3z"/>
	<path class="st3" d="M17.4,55.5c-0.3-0.5-0.7-0.9-1.1-1.4c-0.1-0.1-0.1-0.2-0.1-0.3c0.4,0.3,0.8,0.7,1.1,1c0.1,0,0-0.1,0-0.1
		c0-0.4,0-0.8,0-1.1c0-0.1,0-0.1-0.1-0.1c-0.3,0-0.4-0.1-0.5-0.3c0-0.3,0.1-0.5,0.3-0.5c0.2-0.1,0.5,0,0.6,0.2
		c0.1,0.1,0.1,0.3,0.1,0.4c0,0.7,0,1.5,0,2.2C17.7,55.5,17.5,55.5,17.4,55.5z M17.5,53c0-0.1-0.1-0.2-0.2-0.2
		c-0.2,0-0.3,0.1-0.3,0.2c0,0.2,0.1,0.3,0.2,0.3C17.4,53.3,17.5,53.2,17.5,53z"/>
	<path class="st2" d="M10.3,52.6c0,0.3-0.2,0.5-0.5,0.5c-0.2,0-0.4-0.1-0.6-0.2c-0.1,0-0.2,0-0.3,0.1c-0.2,0.1-0.1,0.2,0.1,0.3
		c0.3,0.1,0.6,0.2,0.9,0.3c0.2,0,0.2,0.1,0.2,0.3c0,0.3,0,0.6,0,1c0,0.3-0.1,0.6-0.4,0.7c-0.1,0-0.3,0-0.4,0C9.1,55.4,9,55.3,9,55.2
		c-0.1-0.3,0.1-0.5,0.4-0.5c0.1,0,0.1,0,0.2,0c0-0.3,0-0.6,0-0.9c0-0.1-0.1-0.1-0.1-0.1c-0.3-0.1-0.6-0.2-0.8-0.3
		c-0.1,0-0.1-0.1-0.1-0.2c0.2-0.5,0.4-0.6,0.9-0.5c0.1,0,0.3,0.1,0.4,0.1C10,52.7,10.2,52.7,10.3,52.6L10.3,52.6z M9.4,54.8
		c-0.1,0-0.2,0.1-0.2,0.2c0,0.1,0.1,0.2,0.2,0.2c0.1,0,0.2-0.1,0.2-0.2C9.6,54.9,9.5,54.8,9.4,54.8z"/>
	<path class="st2" d="M42.1,52.6c0,0.3-0.2,0.5-0.5,0.5c-0.2,0-0.4-0.1-0.6-0.2c-0.1,0-0.2,0-0.3,0.1c-0.2,0.1-0.1,0.2,0.1,0.3
		c0.3,0.1,0.6,0.2,0.9,0.3c0.2,0,0.2,0.1,0.2,0.3c0,0.3,0,0.6,0,1c0,0.3-0.1,0.6-0.4,0.7c-0.1,0-0.3,0-0.4,0
		c-0.1-0.1-0.2-0.1-0.3-0.3c-0.1-0.3,0.1-0.5,0.4-0.5c0.1,0,0.1,0,0.2,0c0-0.3,0-0.6,0-0.9c0-0.1-0.1-0.1-0.1-0.1
		c-0.3-0.1-0.6-0.2-0.8-0.3c-0.1,0-0.1-0.1-0.1-0.2c0.2-0.5,0.4-0.6,0.9-0.5c0.1,0,0.3,0.1,0.4,0.1C41.8,52.7,42,52.7,42.1,52.6
		L42.1,52.6z M41.2,54.8c-0.1,0-0.2,0.1-0.2,0.2c0,0.1,0.1,0.2,0.3,0.2c0.1,0,0.2-0.1,0.2-0.2C41.5,54.9,41.4,54.8,41.2,54.8z"/>
	<path class="st4" d="M50.4,55.5c0-0.5,0-1,0-1.4c0.1,0,0.2,0.1,0.3,0c0.1,0,0.3-0.1,0.3-0.2c0-0.3,0.3-0.3,0.5-0.4c0,0.7,0,1.3,0,2
		C51.1,55.5,50.8,55.5,50.4,55.5z"/>
	<path class="st4" d="M23.6,55.5c0-0.5,0-1,0-1.4c0.1,0,0.2,0.1,0.3,0c0.1,0,0.2-0.1,0.3-0.2c0.2-0.3,0.2-0.3,0.5-0.4
		c0,0.7,0,1.3,0,1.9C24.4,55.5,24,55.5,23.6,55.5z"/>
	<path class="st4" d="M32.6,55.5c0-0.4-0.1-0.7,0.1-1.1c0.2-0.4,0.5-0.7,1-1c0,0.7,0,1.4,0,2.1C33.3,55.5,32.9,55.5,32.6,55.5z"/>
	<path class="st4" d="M19.5,55.5c0.1-0.5,0.3-1.1,0.4-1.6c0.1-0.3,0.1-0.5,0.2-0.8c0.1,0.3,0.2,0.6,0.2,0.8c0.1,0.5,0.2,1,0.4,1.5
		c0,0.1,0,0.1,0,0.2C20.3,55.5,19.9,55.5,19.5,55.5z"/>
	<path class="st2" d="M15.2,55.5c0-0.7,0-1.5,0-2.2c0-0.4-0.3-0.6-0.7-0.4c-0.1,0.1-0.2,0.2-0.3,0.3c-0.1-0.1-0.1-0.2,0-0.3
		c0.3-0.3,0.8-0.3,1.1-0.1c0.2,0.1,0.3,0.3,0.3,0.5c0,0.7,0,1.4,0,2c0,0.1,0,0.2,0,0.2C15.5,55.5,15.4,55.5,15.2,55.5z"/>
	<path class="st2" d="M7.5,55.5c0-0.7,0-1.5,0-2.2c0-0.4-0.3-0.6-0.7-0.4c-0.1,0.1-0.2,0.2-0.3,0.2c-0.1-0.1-0.1-0.2,0-0.3
		c0.3-0.3,0.8-0.3,1.1-0.1c0.2,0.1,0.3,0.3,0.3,0.5c0,0.7,0,1.4,0,2c0,0.1,0,0.2,0,0.2C7.8,55.5,7.7,55.5,7.5,55.5z"/>
	<path class="st2" d="M30.5,55.5c-0.2-0.2-0.3-0.4-0.1-0.7c0-0.1,0-0.2,0-0.3c0-0.5,0-1,0-1.5c0-0.2,0.2-0.3,0.3-0.4
		c0.1-0.1,0.1,0,0.1,0.1c0,0.6,0,1.2,0,1.8c0,0.1,0,0.1,0.1,0.2c0.3,0.1,0.4,0.5,0.1,0.7c0,0,0,0,0,0C30.8,55.5,30.7,55.5,30.5,55.5
		z M31,55.1c0-0.2-0.1-0.2-0.3-0.2c-0.2,0-0.3,0.1-0.3,0.2c0,0.2,0.1,0.3,0.3,0.3C30.9,55.3,31,55.2,31,55.1z"/>
	<path class="st2" d="M22,55.5c-0.3-0.2-0.3-0.3-0.2-0.7c0-0.1,0-0.1,0-0.2c0-0.5,0-1,0-1.6c0-0.2,0.2-0.3,0.3-0.5
		c0.1-0.1,0.1,0,0.1,0.1c0,0.5,0,0.9,0,1.4c0,0.1,0,0.3,0,0.4c0,0.1,0,0.2,0.2,0.3c0.2,0.1,0.3,0.4,0.1,0.6c0,0-0.1,0-0.1,0.1
		C22.2,55.5,22.1,55.5,22,55.5z M22.2,54.8c-0.1,0-0.3,0.1-0.3,0.3c0,0.2,0.1,0.2,0.3,0.2c0.2,0,0.3-0.1,0.3-0.3
		C22.4,54.9,22.3,54.8,22.2,54.8z"/>
	<path class="st2" d="M45.6,55.5c-0.3-0.2-0.3-0.3-0.2-0.7c0-0.1,0-0.1,0-0.2c0-0.5,0-1,0-1.6c0-0.2,0.2-0.3,0.3-0.5
		c0.1-0.1,0.1,0,0.1,0.1c0,0.5,0,0.9,0,1.4c0,0.1,0,0.3,0,0.4c0,0.1,0,0.2,0.2,0.3c0.2,0.1,0.3,0.4,0.1,0.6c0,0-0.1,0-0.1,0.1
		C45.8,55.5,45.7,55.5,45.6,55.5z M46,55.1c0-0.2-0.1-0.2-0.3-0.2c-0.2,0-0.3,0.1-0.3,0.3c0,0.2,0.1,0.3,0.3,0.3
		C45.9,55.3,46,55.2,46,55.1z"/>
	<path class="st2" d="M29.1,55.5c-0.3-0.2-0.3-0.3-0.2-0.7c0-0.1,0-0.1,0-0.2c0-0.5,0-1,0-1.6c0-0.2,0.2-0.3,0.3-0.5
		c0.1-0.1,0.1,0,0.1,0.1c0,0.6,0,1.1,0,1.7c0,0.2,0,0.3,0.2,0.4c0.2,0.1,0.2,0.5-0.1,0.7C29.4,55.5,29.3,55.5,29.1,55.5z M29.3,55.3
		c0.2,0,0.3-0.1,0.3-0.2c0-0.2-0.1-0.3-0.3-0.3c-0.2,0-0.3,0.1-0.2,0.2C29,55.2,29.1,55.3,29.3,55.3z"/>
	<path class="st2" d="M43.3,55.5c-0.1,0-0.1-0.1-0.2-0.1c-0.3-0.2-0.4-0.5-0.2-0.7c0.1-0.2,0.4-0.3,0.7-0.2c0.2,0.1,0.3,0.4,0.2,0.7
		c0,0,0,0,0,0c0.4,0,0.7-0.3,0.8-0.6c0-0.1,0.1-0.2,0.2-0.1c0.2,0,0.1,0.1,0.1,0.2c-0.1,0.4-0.4,0.7-0.8,0.8c0,0-0.1,0-0.1,0
		C43.6,55.5,43.4,55.5,43.3,55.5z M43.3,54.6c-0.2,0-0.3,0.1-0.3,0.3c0,0.2,0.1,0.3,0.3,0.3c0.2,0,0.3-0.1,0.3-0.3
		C43.6,54.7,43.4,54.6,43.3,54.6z"/>
	<path class="st5" d="M34.7,4.6c-0.3,0.1-0.6,0.1-0.8,0.2c-0.7,0.1-1.5,0.3-2.2,0.5c-1,0.2-1.9,0.5-2.9,0.7
		c-0.9,0.3-1.8,0.5-2.7,0.8c-1.4,0.4-2.7,0.9-4,1.5c-1.3,0.6-2.6,1.2-3.8,1.9c-1,0.6-2,1.2-2.9,1.9c-1.3,1-2.4,2.1-3.2,3.4
		c-0.5,0.8-0.9,1.7-1,2.7c-0.1,1-0.1,1.9,0.4,2.8c0.2,0.3,0.3,0.6,0.6,0.8c0.8,0.9,1.8,1.6,2.8,2.2c1.5,0.9,3,1.5,4.5,2.2
		c1,0.4,2,0.8,3,1.2c1,0.4,2,0.7,3,1.1c1.1,0.4,2.3,0.8,3.4,1.2c1.1,0.4,2.3,0.8,3.4,1.2c0.9,0.3,1.8,0.6,2.6,0.9
		c1.1,0.4,2.3,0.8,3.4,1.3c1.5,0.6,2.9,1.2,4.3,1.8c1.9,0.8,3.8,1.7,5.6,2.7c1.9,1,3.7,2.2,5.4,3.5c1.2,0.9,2.3,2,3.3,3.2
		c1,1.2,1.8,2.5,2.4,4c0.1,0.3,0.2,0.7,0.4,1c0.1,0.3,0.1,0.3-0.3,0.3c-0.4,0-0.8,0-1.1,0c-3.3,0.1-6.6,0-9.9,0c-4.8,0-9.5,0-14.3,0
		c-0.2,0-0.3-0.1-0.3-0.2c-0.2-0.6-0.5-1.2-0.8-1.7c-0.3-0.5-0.7-1-1-1.5c-0.5-0.7-1.2-1.3-1.8-2c-1-1-2.1-1.9-3.2-2.8
		c-1-0.7-2-1.4-3-2c-1.8-1.1-3.6-2.1-5.5-3c-1.1-0.5-2.2-1-3.4-1.4c-1.5-0.6-2.9-1.3-4.3-2c-1-0.6-2-1.1-2.9-1.8
		c-1.5-1-2.8-2.2-4-3.5c-0.7-0.8-1.2-1.7-1.6-2.6c-0.4-1-0.6-2.1-0.5-3.2c0.1-0.9,0.3-1.8,0.7-2.6c0.7-1.5,1.8-2.7,3-3.9
		c1.2-1.1,2.5-2,3.8-2.9c1.5-1,3.1-1.8,4.7-2.6C15,9.7,16,9.3,17,8.9c1.4-0.6,2.9-1.1,4.3-1.5c1.1-0.3,2.2-0.7,3.4-1
		c0.9-0.2,1.7-0.4,2.6-0.6c0.8-0.2,1.6-0.4,2.5-0.5C30.4,5.2,31.2,5,32,4.9c0.6-0.1,1.1-0.2,1.7-0.3c0.3,0,0.5,0,0.8-0.1
		C34.5,4.5,34.6,4.5,34.7,4.6z"/>
	<path class="st6" d="M1.3,24.1c0,0.2-0.1,0.4-0.2,0.7c-0.1,0.9,0,1.8,0.2,2.7c0.3,1,0.7,2,1.3,2.9c0.7,1.1,1.5,2.1,2.5,2.9
		c0.4,0.4,0.9,0.7,1.4,1.1c0.5,0.4,1,0.8,1.5,1.2c0.5,0.4,1,0.7,1.5,1.1c0.7,0.5,1.4,1.1,2,1.6c0.8,0.7,1.6,1.4,2.4,2.1
		c0.9,0.9,1.8,1.7,2.6,2.7c0.7,0.8,1.3,1.6,1.8,2.5c0.6,0.9,1,1.8,1.2,2.9c0.1,0.5,0.1,1,0.1,1.5c0,0.2-0.1,0.2-0.2,0.2
		c-0.7,0-1.4,0-2.2,0c-1.3,0-2.6,0-3.8,0c-3.2,0.1-6.5,0-9.7,0c-0.1,0-0.2,0-0.2,0c0.3-0.3,0.6-0.7,0.9-1c0.8-0.8,1.5-1.7,2-2.8
		C7,45.6,7.2,44.8,7.2,44c0-0.6,0-1.3-0.1-1.9C7,41.5,6.8,41,6.6,40.4c-0.4-1-0.9-2-1.4-3c-0.5-1-1.1-1.9-1.6-2.8
		c-0.7-1.2-1.3-2.4-1.8-3.7c-0.3-0.7-0.5-1.5-0.6-2.3c-0.2-1-0.2-2-0.1-3c0-0.4,0.1-0.9,0.2-1.3C1.2,24.2,1.2,24.2,1.3,24.1z"/>
	<path class="st7" d="M30.6,6.3c-0.6,0.3-1.2,0.6-1.8,0.8c-0.6,0.2-1.1,0.5-1.6,0.7c-0.8,0.3-1.6,0.7-2.4,1.1
		c-0.9,0.5-1.7,1-2.5,1.5c-1.4,0.9-2.7,2-3.8,3.3c-0.7,0.8-1.2,1.7-1.6,2.7c-0.2,0.5-0.4,1-0.4,1.5c-0.1,0.7-0.2,1.3,0,2
		c0.1,0.4,0.2,0.9,0.3,1.3c0.1,0.2,0,0.2-0.2,0.2c-0.4-0.1-0.7-0.2-1.1-0.4c-0.7-0.4-1.3-1-1.6-1.8c-0.1-0.2-0.1-0.4-0.1-0.6
		c-0.1-0.9,0-1.7,0.3-2.5c0.4-1.1,1.1-1.9,1.9-2.7c0.8-0.8,1.7-1.6,2.7-2.2c1.2-0.8,2.4-1.4,3.6-2c1.1-0.5,2.2-1,3.3-1.4
		c1.1-0.4,2.2-0.8,3.3-1.1c0.4-0.1,0.9-0.3,1.4-0.4C30.4,6.3,30.5,6.3,30.6,6.3z"/>
	<path class="st3" d="M29.2,21.5c-0.3,0.3-0.5,0.7-0.8,1c-0.2,0.2-0.3,0.4-0.5,0.6c-0.3,0.3-0.8,0.3-1.1,0c-0.1-0.1-0.1-0.5,0.1-0.7
		c0.1-0.2,0.3-0.4,0.5-0.5c0.4-0.4,0.7-0.8,1.1-1.3c0.1-0.1,0.1-0.2,0-0.3c-0.3-0.3-0.5-0.6-0.8-1c-0.1-0.1-0.2-0.3-0.4-0.4
		c-0.2-0.2-0.2-0.4-0.1-0.6c0.1-0.2,0.2-0.3,0.5-0.3c0.3,0,0.5,0.1,0.7,0.3c0.3,0.4,0.6,0.6,0.8,1c0.1,0.1,0.2,0.1,0.3,0
		c0.3-0.4,0.6-0.7,0.9-1.1c0.3-0.3,0.5-0.4,0.9-0.3c0.3,0.1,0.4,0.3,0.3,0.6c-0.1,0.2-0.1,0.4-0.3,0.5c-0.4,0.3-0.6,0.8-1,1.1
		c-0.1,0.1-0.1,0.2,0,0.4c0.5,0.6,1,1.2,1.5,1.7c0.1,0.1,0.1,0.1,0.1,0.2c0.1,0,0.1-0.1,0.2-0.2c0.4-1,0.9-2,1.3-3.1
		c0.1-0.2,0.2-0.5,0.3-0.7c0.2-0.4,0.5-0.6,0.9-0.6c0.5,0,0.8,0.2,0.9,0.6c0.4,1,0.9,2.1,1.3,3.1c0.1,0.3,0.2,0.5,0.3,0.8
		c0.1,0.3,0,0.6-0.2,0.7c-0.3,0.1-0.7,0-0.8-0.2c-0.1-0.2-0.2-0.5-0.3-0.7c0-0.1-0.1-0.1-0.2-0.1c-0.7,0-1.4,0-2,0
		c-0.1,0-0.1,0-0.1,0.1c-0.1,0.2-0.1,0.3-0.2,0.5c-0.2,0.6-0.8,0.7-1.2,0.3c-0.1-0.1-0.1-0.1-0.2,0c-0.2,0.3-0.7,0.3-1,0
		c-0.3-0.3-0.6-0.6-0.8-1C29.6,22,29.4,21.8,29.2,21.5z M34.4,19.3c0,0.1-0.1,0.2-0.1,0.3c-0.2,0.5-0.4,1-0.6,1.5
		c-0.1,0.1,0,0.2,0.1,0.2c0.4,0,0.8,0,1.1,0c0.1,0,0.2,0,0.1-0.2c-0.1-0.3-0.2-0.6-0.3-0.9C34.6,19.9,34.5,19.6,34.4,19.3z"/>
	<path class="st3" d="M23.3,20.7c0-0.7,0-1.3,0-2c0-0.5,0.1-0.6,0.6-0.6c0.5,0,0.9,0,1.4,0c0.3,0,0.5,0,0.8,0c0.3,0,0.5,0.2,0.5,0.5
		c0,0.3-0.2,0.5-0.5,0.5c-0.5,0-0.9,0-1.4,0c-0.1,0-0.2,0-0.2,0.2c0,0.3,0,0.5,0,0.8c0,0.1,0,0.1,0.1,0.1c0.4,0,0.8,0,1.3,0
		c0.3,0,0.6,0.2,0.6,0.5c0,0.3-0.2,0.5-0.6,0.5c-0.4,0-0.8,0-1.2,0c-0.1,0-0.2,0-0.2,0.2c0,0.3,0,0.5,0,0.8c0,0.1,0,0.2,0.2,0.2
		c0.5,0,0.9,0,1.4,0c0.4,0,0.7,0.4,0.5,0.8c0,0.1-0.2,0.2-0.3,0.2c-0.8,0-1.7,0-2.5,0c-0.3,0-0.5-0.2-0.5-0.5
		C23.2,22.1,23.3,21.4,23.3,20.7z"/>
	<path class="st3" d="M37.5,21.1c0-0.6,0-1.2,0-1.8c0-0.1,0-0.2-0.2-0.2c-0.3,0-0.5,0-0.8,0c-0.3,0-0.5-0.2-0.5-0.5
		c0-0.3,0.2-0.5,0.5-0.5c1,0,2.1,0,3.1,0c0.4,0,0.6,0.2,0.6,0.6c0,0.3-0.2,0.4-0.4,0.4c-0.3,0-0.5,0-0.8,0c-0.2,0-0.2,0.1-0.2,0.2
		c0,1.1,0,2.2,0,3.3c0,0.3-0.1,0.5-0.3,0.6c-0.3,0.1-0.5,0.1-0.8-0.1c-0.1-0.1-0.2-0.2-0.2-0.4C37.5,22.2,37.5,21.7,37.5,21.1
		C37.5,21.1,37.5,21.1,37.5,21.1z"/>
	<path class="st2" d="M19.1,51.8c0.1-0.6,0.7-1,1.3-0.9c0.6,0.1,1,0.5,0.9,1.2C20.6,51.7,19.8,51.6,19.1,51.8z M19.3,51.5
		c0,0,0.1,0,0.1,0c0.3,0,0.6,0,0.9,0c0.2,0,0.5,0.1,0.7,0.2c-0.1-0.4-0.5-0.7-1-0.6C19.8,51.2,19.5,51.3,19.3,51.5
		C19.3,51.5,19.3,51.5,19.3,51.5C19.3,51.5,19.4,51.5,19.3,51.5C19.4,51.5,19.3,51.5,19.3,51.5z"/>
	<path class="st2" d="M43.6,53.5c0.4,0,0.7-0.3,0.8-0.6c0-0.1,0.1-0.2,0.2-0.1c0.1,0,0.1,0.1,0.1,0.2c-0.1,0.7-1,1.1-1.6,0.8
		c-0.2-0.2-0.3-0.5-0.2-0.7c0.1-0.2,0.4-0.3,0.7-0.2C43.7,52.8,43.8,53.1,43.6,53.5z M43.3,53.5c0.2,0,0.3-0.1,0.3-0.3
		c0-0.2-0.1-0.3-0.3-0.3c-0.2,0-0.3,0.1-0.3,0.3C43,53.3,43.1,53.4,43.3,53.5z"/>
	<path class="st3" d="M34.3,51.4c0,0.1,0,0.2,0,0.3c0,0.2-0.1,0.2-0.2,0.2c-0.1,0-0.1,0-0.1-0.1c0-0.2,0-0.5,0-0.7
		c0-0.2,0.1-0.1,0.2-0.1c0.1,0,0.2,0,0.2,0.1C34.3,51.2,34.3,51.3,34.3,51.4z"/>
	<polygon class="st2" points="42.1,52.6 42.1,52.6 42.1,52.6 	"/>
	<polygon class="st2" points="10.3,52.6 10.3,52.6 10.3,52.6 	"/>
	<path class="st4" d="M37.3,53c0-0.2,0.1-0.2,0.3-0.2c0.1,0,0.2,0.1,0.2,0.2c0,0.2-0.1,0.3-0.2,0.3C37.4,53.3,37.3,53.2,37.3,53z"/>
	<path class="st4" d="M19.1,53c0,0.1-0.1,0.2-0.2,0.2c-0.2,0-0.2-0.1-0.2-0.3c0-0.1,0.1-0.2,0.3-0.2C19,52.8,19.1,52.9,19.1,53z"/>
	<path class="st4" d="M23.3,53.8c-0.2-0.2-0.2-0.5,0-0.7c0.3-0.3,1-0.3,1.3,0c0.1,0.1,0.1,0.2,0,0.2c-0.2,0.1-0.3,0.2-0.5,0
		c-0.2-0.2-0.6-0.1-0.7,0.2C23.3,53.6,23.3,53.7,23.3,53.8z"/>
	<path class="st4" d="M24.1,53.6c0,0.1-0.1,0.2-0.2,0.2c-0.2,0-0.2-0.1-0.2-0.2c0-0.1,0.1-0.2,0.2-0.2C24,53.4,24.1,53.5,24.1,53.6z
		"/>
	<path class="st4" d="M50.1,53.8c-0.2-0.3-0.1-0.6,0.1-0.8c0.3-0.2,0.9-0.2,1.1,0.1c0.1,0.1,0.1,0.2,0,0.2c-0.2,0.1-0.3,0.2-0.5,0
		c-0.2-0.2-0.5-0.1-0.6,0.1C50.1,53.5,50.1,53.6,50.1,53.8z"/>
	<path class="st4" d="M50.7,53.9c-0.2,0-0.2-0.1-0.2-0.2c0-0.1,0.1-0.2,0.2-0.2c0.2,0,0.2,0.1,0.2,0.2
		C50.9,53.8,50.8,53.9,50.7,53.9z"/>
	<path class="st4" d="M55.4,53.2c-0.2,0-0.3-0.1-0.3-0.3c0-0.2,0.1-0.2,0.3-0.2c0.2,0,0.2,0.1,0.2,0.2
		C55.6,53.1,55.5,53.2,55.4,53.2z"/>
	<path class="st4" d="M46.9,52.7c0.1,0,0.2,0.1,0.3,0.2c0,0.2-0.1,0.3-0.3,0.3c-0.2,0-0.3-0.1-0.3-0.3
		C46.7,52.8,46.8,52.7,46.9,52.7z"/>
	<path class="st4" d="M11.4,53.2c-0.2,0-0.3-0.1-0.3-0.3c0-0.2,0.1-0.2,0.3-0.2c0.2,0,0.2,0.1,0.2,0.3
		C11.7,53.2,11.6,53.2,11.4,53.2z"/>
	<path class="st4" d="M26.7,54.4c0.4,0.3,0.7,0.3,1.1,0.1c0,0.2,0,0.4,0,0.6c0,0.2-0.1,0.3-0.3,0.3c-0.2,0-0.5,0-0.7,0
		c-0.1,0-0.1-0.1-0.1-0.1C26.7,54.9,26.7,54.7,26.7,54.4z"/>
	<path class="st4" d="M26.1,52.7c0.2,0,0.2,0.1,0.2,0.3c0,0.1-0.1,0.2-0.2,0.2c-0.2,0-0.2-0.1-0.2-0.3C25.9,52.8,26,52.7,26.1,52.7z
		"/>
	<path class="st4" d="M34.1,52.9c0,0.2-0.1,0.2-0.2,0.2c-0.1,0-0.2-0.1-0.2-0.2c0-0.2,0.1-0.2,0.2-0.2C34,52.7,34,52.8,34.1,52.9z"
		/>
	<path class="st4" d="M32.2,53c0,0.1-0.1,0.2-0.2,0.2c-0.2,0-0.2-0.1-0.2-0.2c0-0.1,0.1-0.2,0.2-0.2C32.1,52.8,32.2,52.9,32.2,53z"
		/>
	<path class="st4" d="M54.3,55.1c0,0.2-0.1,0.2-0.3,0.2c-0.2,0-0.3-0.1-0.3-0.3c0-0.2,0.1-0.2,0.3-0.2
		C54.2,54.8,54.3,54.9,54.3,55.1z"/>
	<path class="st4" d="M58.9,53.2c-0.2,0-0.3-0.1-0.3-0.2c0-0.1,0.1-0.2,0.2-0.2c0.1,0,0.2,0.1,0.2,0.2C59.1,53.1,59,53.2,58.9,53.2z
		"/>
	<path class="st4" d="M36,53.3c-0.1,0-0.2-0.1-0.2-0.2c0-0.2,0.1-0.3,0.2-0.3c0.2,0,0.2,0.1,0.2,0.2C36.2,53.2,36.1,53.3,36,53.3z"
		/>
	<path class="st4" d="M17.5,53c0,0.2-0.1,0.3-0.2,0.3c-0.2,0-0.3-0.1-0.2-0.3c0-0.2,0.1-0.3,0.3-0.2C17.4,52.8,17.5,52.9,17.5,53z"
		/>
	<path class="st4" d="M9.4,54.8c0.1,0,0.2,0.1,0.2,0.2c0,0.1-0.1,0.2-0.2,0.2c-0.2,0-0.2-0.1-0.2-0.2C9.2,54.9,9.3,54.8,9.4,54.8z"
		/>
	<path class="st4" d="M41.2,54.8c0.1,0,0.2,0.1,0.2,0.2c0,0.1-0.1,0.2-0.2,0.2c-0.2,0-0.2-0.1-0.3-0.2C41,54.9,41.1,54.8,41.2,54.8z
		"/>
	<path class="st4" d="M31,55.1c0,0.2-0.1,0.3-0.3,0.3c-0.2,0-0.3-0.1-0.3-0.3c0-0.2,0.1-0.2,0.3-0.2C30.9,54.8,31,54.9,31,55.1z"/>
	<path class="st4" d="M22.2,54.8c0.2,0,0.3,0.1,0.3,0.2c0,0.2-0.1,0.3-0.3,0.3c-0.2,0-0.3-0.1-0.3-0.2C21.9,54.9,22,54.8,22.2,54.8z
		"/>
	<path class="st4" d="M46,55.1c0,0.2-0.1,0.3-0.3,0.3c-0.2,0-0.3-0.1-0.3-0.3c0-0.2,0.1-0.2,0.3-0.3C45.9,54.8,46,54.9,46,55.1z"/>
	<path class="st4" d="M29.3,55.3c-0.1,0-0.3-0.1-0.3-0.3c0-0.2,0.1-0.2,0.2-0.2c0.2,0,0.3,0.1,0.3,0.3
		C29.6,55.3,29.5,55.3,29.3,55.3z"/>
	<path class="st4" d="M43.3,54.6c0.2,0,0.3,0.2,0.3,0.3c0,0.2-0.1,0.3-0.3,0.3c-0.2,0-0.3-0.1-0.3-0.3C43,54.7,43.1,54.6,43.3,54.6z
		"/>
	<path class="st4" d="M34.4,19.3c0.1,0.3,0.2,0.6,0.3,0.9c0.1,0.3,0.2,0.6,0.3,0.9c0,0.1,0,0.2-0.1,0.2c-0.4,0-0.8,0-1.1,0
		c-0.1,0-0.2,0-0.1-0.2c0.2-0.5,0.4-1,0.6-1.5C34.3,19.4,34.4,19.4,34.4,19.3z"/>
	<path class="st4" d="M19.3,51.5c0.2-0.2,0.5-0.3,0.7-0.4c0.4-0.1,0.9,0.2,1,0.6c-0.2-0.1-0.5-0.1-0.7-0.2c-0.3,0-0.6-0.1-0.9,0
		C19.4,51.5,19.3,51.5,19.3,51.5L19.3,51.5z"/>
	<path class="st4" d="M19.3,51.5C19.3,51.5,19.4,51.5,19.3,51.5C19.4,51.5,19.3,51.5,19.3,51.5C19.3,51.5,19.3,51.5,19.3,51.5
		C19.3,51.5,19.3,51.5,19.3,51.5z"/>
	<path class="st4" d="M43.3,53.5c-0.2,0-0.3-0.1-0.3-0.3c0-0.2,0.1-0.3,0.3-0.3c0.1,0,0.3,0.1,0.3,0.3
		C43.6,53.3,43.4,53.5,43.3,53.5z"/>
</g>
</svg>
